<?xml version="1.0" standalone="no"?>
<!DOCTYPE svg PUBLIC "-//W3C//DTD SVG 20010904//EN"
 "http://www.w3.org/TR/2001/REC-SVG-20010904/DTD/svg10.dtd">
<svg version="1.0" xmlns="http://www.w3.org/2000/svg"
 width="1771.000000pt" height="1771.000000pt" viewBox="0 0 1771.000000 1771.000000"
 preserveAspectRatio="xMidYMid meet">
<metadata>
Created by potrace 1.14, written by Peter Selinger 2001-2017
</metadata>
<g transform="translate(0.000000,1771.000000) scale(0.100000,-0.100000)"
fill="#000000" stroke="none">
<path d="M1770 8977 l0 -7002 7000 0 c3850 0 7001 2 7001 5 1 3 2 3154 3 7003
l1 6997 -7002 0 -7003 0 0 -7003z m12920 3 l0 -5920 -5920 0 -5920 0 0 5920 0
5920 5920 0 5920 0 0 -5920z"/>
<path d="M6615 8440 l0 -540 2157 0 2158 0 0 540 0 540 -2158 0 -2157 0 0
-540z"/>
<path d="M5270 6555 l0 -540 3493 1 c1920 1 3497 2 3502 3 7 1 10 182 9 534
-1 292 -2 534 -3 537 0 3 -1576 5 -3501 5 l-3500 0 0 -540z"/>
<path d="M3929 5203 c-1 -5 -2 -248 -3 -540 l-1 -533 4847 0 4848 0 0 540 0
540 -4845 0 c-2665 0 -4846 -3 -4846 -7z"/>
</g>
</svg>
